<svg width="98" height="64" viewBox="0 0 98 64" fill="none" xmlns="http://www.w3.org/2000/svg">
  <g clip-path="url(#clip0_5584_3444)">
    <path d="M49 63.5C76.062 63.5 98 58.6843 98 52.7439C98 46.8035 76.062 41.9878 49 41.9878C21.938 41.9878 0 46.8035 0 52.7439C0 58.6843 21.938 63.5 49 63.5Z" fill="#DCE5EE"/>
    <path d="M84.2188 21.6434L68.6827 3.96961C67.937 2.76492 66.8483 2.03658 65.7013 2.03658H32.2987C31.1518 2.03658 30.063 2.76492 29.3173 3.96807L13.7812 21.6449V35.8415H84.2188V21.6434Z" stroke="#8EA8C2"/>
    <path d="M63.7199 26.5159C63.7199 24.0497 65.242 22.0137 67.13 22.0122H84.2188V49.8812C84.2188 53.1434 82.1975 55.8171 79.7016 55.8171H18.2984C15.8025 55.8171 13.7812 53.1419 13.7812 49.8812V22.0122H30.87C32.758 22.0122 34.2801 24.0451 34.2801 26.5113V26.5451C34.2801 29.0113 35.819 31.0028 37.7055 31.0028H60.2945C62.181 31.0028 63.7199 28.9929 63.7199 26.5267V26.5159V26.5159Z" fill="#DCE5EE" stroke="#8EA8C2"/>
  </g>
  <defs>
    <clipPath id="clip0_5584_3444">
      <rect width="98" height="63" fill="white" transform="translate(0 0.5)"/>
    </clipPath>
  </defs>
</svg>
